<svg width="512" height="512" viewBox="0 0 512 512" fill="none" xmlns="http://www.w3.org/2000/svg">
<g clip-path="url(#clip0_5036_128)">
<path d="M122.88 0C91.2 0 68.04 4.08 52.16 17.92C36.28 31.76 30.72 53.56 30.72 81.92V122.88H20.48C9.28 122.88 0 132.16 0 143.36V225.28C0 236.48 9.28 245.76 20.48 245.76H30.72V419.84C30.72 432.36 34.64 442.88 40.96 450.88V481.28C40.96 498.12 54.84 512 71.68 512H112.64C129.48 512 143.36 498.12 143.36 481.28V471.04H368.64V481.28C368.64 498.12 382.52 512 399.36 512H440.32C457.16 512 471.04 498.12 471.04 481.28V450.88C477.36 442.88 481.28 432.36 481.28 419.84V245.76H491.52C502.72 245.76 512 236.48 512 225.28V143.36C512 132.16 502.72 122.88 491.52 122.88H481.28V92.16C481.28 65.08 479.12 42.92 468.16 25.92C457.2 8.92 437.12 0 409.6 0H122.88ZM122.88 20.48H409.6C433.28 20.48 443.92 26.04 450.88 36.8C457.84 47.56 460.8 66.4 460.8 92.16V419.84C460.8 434.04 456.72 439.64 448.32 444.16C439.92 448.68 425.84 450.56 409.6 450.56H102.4C86.16 450.56 72.08 448.68 63.68 444.16C55.28 439.64 51.2 434.04 51.2 419.84V81.92C51.2 56.16 55.88 42.08 65.6 33.6C75.32 25.12 93.12 20.48 122.88 20.48ZM153.6 30.72C142.4 30.72 133.12 40 133.12 51.2V71.68C133.12 82.88 142.4 92.16 153.6 92.16H368.64C379.84 92.16 389.12 82.88 389.12 71.68V51.2C389.12 40 379.84 30.72 368.64 30.72H153.6ZM153.6 51.2H368.64V71.68H153.6V51.2ZM112.64 102.4C100.68 102.4 89.76 105.44 82.24 112.96C74.72 120.48 71.68 131.4 71.68 143.36V266.24C71.68 278.2 74.72 289.12 82.24 296.64C89.76 304.16 100.68 307.2 112.64 307.2L399.36 306.56C407.72 306.56 416.72 303.36 424.96 296.96C433.2 290.56 440.32 279.8 440.32 266.24V143.36C440.32 131.4 437.28 120.48 429.76 112.96C422.24 105.44 411.32 102.4 399.36 102.4H112.64ZM112.64 122.88H399.36C407.88 122.88 412.32 124.96 415.04 127.68C417.76 130.4 419.84 134.84 419.84 143.36V266.24C419.84 273.16 416.92 277.2 412.48 280.64C408.04 284.08 401.72 286.08 399.36 286.08L112.64 286.72C104.12 286.72 99.68 284.64 96.96 281.92C94.24 279.2 92.16 274.76 92.16 266.24V143.36C92.16 134.84 94.24 130.4 96.96 127.68C99.68 124.96 104.12 122.88 112.64 122.88ZM20.48 143.36H30.72V225.28H20.48V143.36ZM481.28 143.36H491.52V225.28H481.28V143.36ZM117.76 337.92C92.44 337.92 71.68 358.68 71.68 384C71.68 409.32 92.44 430.08 117.76 430.08C143.08 430.08 163.84 409.32 163.84 384C163.84 358.68 143.08 337.92 117.76 337.92ZM394.24 337.92C368.92 337.92 348.16 358.68 348.16 384C348.16 409.32 368.92 430.08 394.24 430.08C419.56 430.08 440.32 409.32 440.32 384C440.32 358.68 419.56 337.92 394.24 337.92ZM117.76 358.4C132 358.4 143.36 369.76 143.36 384C143.36 398.24 132 409.6 117.76 409.6C103.52 409.6 92.16 398.24 92.16 384C92.16 369.76 103.52 358.4 117.76 358.4ZM394.24 358.4C408.48 358.4 419.84 369.76 419.84 384C419.84 398.24 408.48 409.6 394.24 409.6C380 409.6 368.64 398.24 368.64 384C368.64 369.76 380 358.4 394.24 358.4ZM61.44 465.28C73.72 469.92 87.72 471.04 102.4 471.04H122.88V481.28C122.88 487.04 118.4 491.52 112.64 491.52H71.68C65.92 491.52 61.44 487.04 61.44 481.28V465.28ZM450.56 465.28V481.28C450.56 487.04 446.08 491.52 440.32 491.52H399.36C393.6 491.52 389.12 487.04 389.12 481.28V471.04H409.6C424.28 471.04 438.28 469.92 450.56 465.28Z" fill="white"/>
</g>
<defs>
<clipPath id="clip0_5036_128">
<rect width="512" height="512" fill="white"/>
</clipPath>
</defs>
</svg>
